<svg xmlns="http://www.w3.org/2000/svg" viewBox="-273 289.607 127.625 86.893">
  <defs>
    <style>
      .cls-1 {
        fill: #fff;
        fill-rule: evenodd;
      }
    </style>
  </defs>
  <path id="Path_96" data-name="Path 96" class="cls-1" d="M5.809,1.189C-5.547,6.067,1.6,21.46,12.033,17.591c10.346-3.869,4.795-21.113-6.224-16.4M89.166,22.3c5.8.673,5.8-.336,10.01-2.523,8.411-4.374,26.075-10.851,18.673-18.169-5.636-5.552-14.215,5.552-15.982,7.486ZM.089,86.06c6.309-.084,10.935-.589,17.412.084-.084-9.253-.841-18.505-.841-27.926,0-9.589.841-19.178.841-28.431-7.486,1.178-10.178.589-17.328.084,0,9.168.841,18.421.841,27.842C1.014,67.3.173,76.723.089,86.06Zm27.337,0c6.981,0,12.281-.336,19.43.084-.589-13.122-.841-25.487-.841-38.693L71.67,48.629l-.168-9.5L46.1,40.386l.252-25.571,26.328,1.178-.252-9.757c-14.888,1.009-29.524.252-44.5,0-.168,2.608.841,33.057.925,40.123C28.856,59.985,28.015,72.77,27.426,86.06ZM91.689,52.583l19.683.168c1.43-8.664-.841-19.346-9.841-18.673C93.371,34.582,91.1,44.171,91.689,52.583Zm33.562,22.711c-2.523-.084-3.785,2.523-10.43,4.122C99.932,82.948,90.259,70.5,91.857,58.05c6.645-.673,32.048.841,35.749-.5.673-16.991-5.72-27.253-21.533-28.683-16.318-1.43-27.421,7.318-30.449,20.356C71.922,65.284,78.9,79.163,89.5,84.21c9.673,4.626,31.206,3.533,34.487-4.122C124.494,78.658,125.335,77.06,125.251,75.293Z" transform="translate(-273.029 289.537)"/>
</svg>
